<svg width="48" height="48" viewBox="0 0 48 48" fill="none" xmlns="http://www.w3.org/2000/svg">
<circle cx="24.2595" cy="23.5911" r="23.0911" fill="#5C378A" stroke="black"/>
<path d="M25.3112 32.0092C25.0427 40.8613 24.6572 41.9127 24.2849 41.2936C23.8666 39.2133 23.6458 35.4076 23.4817 32.1001C23.368 29.8108 24.1263 23.1004 20.4424 21.5592C17.8445 20.4723 17.6892 19.6192 17.6409 18.774L17.4543 15.0147C17.7262 15.7623 19.9007 17.0965 21.2988 17.6868C23.1989 18.4889 24.3384 20.06 24.3497 20.4237C24.4365 19.3305 26.4155 17.5949 28.2142 16.5452C29.5465 15.7678 30.5339 15.3753 30.621 14.576L30.8388 18.9631C30.7219 19.3702 30.1866 20.2318 28.2446 21.4866C25.9987 22.9378 25.6468 20.9442 25.3112 32.0092Z" fill="#EF97EC"/>
<path d="M26.5038 15.3841C25.4135 16.0461 24.7815 17.2149 24.6018 17.7166C24.3301 17.1212 23.4486 15.5667 22.1533 15.265C21.2068 14.5207 20.6656 13.7346 20.615 13.2851C20.6232 12.7096 20.6769 11.3788 21.9139 10.4414C23.3022 9.75471 23.8548 8.63663 24.1186 7.98334C25.0429 9.47526 26.6933 9.83141 27.4328 10.5436C28.1722 11.2557 28.409 12.1793 28.3021 12.9035C28.1952 13.6278 27.8667 14.5567 26.5038 15.3841Z" fill="#EF97EC"/>
<path d="M24.2849 41.2936C24.6572 41.9127 25.0427 40.8613 25.3112 32.0092C25.6468 20.9442 25.9987 22.9378 28.2446 21.4866C30.1865 20.2318 30.7219 19.3702 30.8388 18.9631L30.621 14.576C30.5339 15.3753 29.5465 15.7678 28.2142 16.5452C26.3998 17.604 24.4021 19.3607 24.3479 20.452C24.4033 20.151 23.2535 18.512 21.2988 17.6868C19.9007 17.0965 17.7262 15.7623 17.4543 15.0147L17.6409 18.774C17.6892 19.6192 17.8445 20.4723 20.4424 21.5592C24.1263 23.1004 23.368 29.8108 23.4817 32.1001C23.6458 35.4076 23.8666 39.2133 24.2849 41.2936ZM24.6018 17.7166C24.7815 17.2149 25.4135 16.0461 26.5038 15.3841C27.8667 14.5567 28.1952 13.6278 28.3021 12.9035C28.409 12.1793 28.1722 11.2557 27.4328 10.5436C26.6933 9.83141 25.0429 9.47526 24.1186 7.98334C23.8548 8.63663 23.3022 9.75471 21.9139 10.4414C20.6769 11.3788 20.6232 12.7096 20.615 13.2851C20.6656 13.7346 21.2068 14.5207 22.1533 15.265C23.4486 15.5667 24.3301 17.1212 24.6018 17.7166Z" stroke="black"/>
</svg>
