<svg width="48" height="48" viewBox="0 0 48 48" fill="none" xmlns="http://www.w3.org/2000/svg">
<circle cx="24.0917" cy="23.9555" r="23.0911" fill="#4B6C04" stroke="black"/>
<path d="M25.979 34.831H22.6762L21.8034 40.6108L26.9226 40.7523L25.979 34.831Z" fill="#CCDC31"/>
<path d="M24.7523 14.1652C25.8091 14.1652 25.979 32.755 25.979 32.755C25.979 32.755 30.6736 32.9825 31.1454 32.9437C36.0164 32.5433 36.4377 28.9647 36.2175 26.928C32.6317 25.7956 32.6553 26.0787 32.0891 26.0787C32.5137 21.1246 33.1271 12.0184 24.7523 7.20581C16.4104 12.0939 16.6998 21.8401 16.8492 26.0787C16.0943 25.9843 13.806 25.5927 11.9187 27.329C12.2207 30.0467 15.4338 32.0158 16.8492 32.5426H22.6762C23.1795 26.4876 23.6954 14.1652 24.7523 14.1652Z" fill="#CCDC31"/>
<path d="M25.979 34.831H22.6762L21.8034 40.6108L26.9226 40.7523L25.979 34.831Z" stroke="black"/>
<path d="M24.7523 14.1652C25.8091 14.1652 25.979 32.755 25.979 32.755C25.979 32.755 30.6736 32.9825 31.1454 32.9437C36.0164 32.5433 36.4377 28.9647 36.2175 26.928C32.6317 25.7956 32.6553 26.0787 32.0891 26.0787C32.5137 21.1246 33.1271 12.0184 24.7523 7.20581C16.4104 12.0939 16.6998 21.8401 16.8492 26.0787C16.0943 25.9843 13.806 25.5927 11.9187 27.329C12.2207 30.0467 15.4338 32.0158 16.8492 32.5426H22.6762C23.1795 26.4876 23.6954 14.1652 24.7523 14.1652Z" stroke="black"/>
</svg>
