<svg width="48" height="48" viewBox="0 0 48 48" fill="none" xmlns="http://www.w3.org/2000/svg">
<circle cx="23.5911" cy="23.6226" r="23.0911" fill="#7CAEB5" stroke="black"/>
<path d="M20.6894 36.3382H13.7064L15.3814 20.0839H31.6592L33.7116 36.3382H27.0118L26.4692 30.0158H21.1848L20.6894 36.3382Z" fill="#F0E273"/>
<path d="M12.0786 17.1115H35.0563V10.8834H29.9842V13.3133H25.8794V10.8834H20.6894V13.3133H16.7261V10.8834H12.0786V17.1115Z" fill="#F0E273"/>
<path d="M20.6894 36.3382H13.7064L15.3814 20.0839H31.6592L33.7116 36.3382H27.0118L26.4692 30.0158H21.1848L20.6894 36.3382Z" stroke="black"/>
<path d="M12.0786 17.1115H35.0563V10.8834H29.9842V13.3133H25.8794V10.8834H20.6894V13.3133H16.7261V10.8834H12.0786V17.1115Z" stroke="black"/>
</svg>
