<svg width="56" height="56" viewBox="0 0 56 56" fill="none" xmlns="http://www.w3.org/2000/svg">
<circle cx="27.9306" cy="27.7498" r="27.2195" fill="black" stroke="black"/>
<path d="M30.9627 22.5789C31.3027 26.9081 30.6863 27.5233 30.165 28.7151C28.9516 19.6785 28.491 20.7668 27.8108 21.8522C23.9905 29.2195 22.6457 29.6073 22.338 28.7638C26.4891 23.7604 24.913 20.8769 24.6905 20.6128L17.0265 29.6407C16.0607 31.1459 15.2894 34.4568 15.8712 39.6066C17.9064 42.6478 21.8404 45.5905 23.4533 46.1921L31.7629 46.4539C32.8242 45.9782 35.1828 45.2762 37.5527 42.676C40.5151 39.4257 40.4251 33.7741 38.2713 29.8619C36.1175 25.9497 30.5376 17.1674 30.9627 22.5789Z" fill="#FF0000"/>
<path d="M26.2321 18.0244L30.7048 17.9966L36.8792 9.27238L20.4384 9.37458L26.2321 18.0244Z" fill="#FF0000"/>
<path d="M30.9627 22.5789C31.3027 26.9081 30.6863 27.5233 30.165 28.7151C28.9516 19.6785 28.491 20.7668 27.8108 21.8522C23.9905 29.2195 22.6457 29.6073 22.338 28.7638C26.4891 23.7604 24.913 20.8769 24.6905 20.6128L17.0265 29.6407C16.0607 31.1459 15.2894 34.4568 15.8712 39.6066C17.9064 42.6478 21.8404 45.5905 23.4533 46.1921L31.7629 46.4539C32.8242 45.9782 35.1828 45.2762 37.5527 42.676C40.5151 39.4257 40.4251 33.7741 38.2713 29.8619C36.1175 25.9497 30.5376 17.1674 30.9627 22.5789Z" stroke="black"/>
<path d="M26.2321 18.0244L30.7048 17.9966L36.8792 9.27238L20.4384 9.37458L26.2321 18.0244Z" stroke="black"/>
</svg>
