<svg width="48" height="48" viewBox="0 0 48 48" fill="none" xmlns="http://www.w3.org/2000/svg">
<circle cx="24.059" cy="24.2937" r="23.0911" fill="#EC8B11" stroke="black"/>
<path d="M26.0245 21.9564L24.0107 41.6814L21.9121 21.9564L17.7837 21.9564C17.7292 20.743 18.5928 17.8452 23.7522 17.7129C28.9117 17.5805 30.3351 20.4938 30.3106 21.9564L26.0245 21.9564Z" fill="#FFDD82"/>
<path d="M42.3656 20.7185L32.8583 20.7185C32.086 18.8441 29.8429 15.0906 24.103 15.0717C18.3632 15.0528 14.7379 18.9384 13.726 20.998L6.08246 20.998L10.5412 18.6093C11.9203 15.6728 17.0002 10.6861 24.2473 10.6861C31.3957 10.6861 36.2092 15.6259 37.4586 18.0667L42.3656 20.7185Z" fill="#FFDD82"/>
<path d="M26.0245 21.9564L24.0107 41.6814L21.9121 21.9564L17.7837 21.9564C17.7292 20.743 18.5928 17.8452 23.7522 17.7129C28.9117 17.5805 30.3351 20.4938 30.3106 21.9564L26.0245 21.9564Z" stroke="black"/>
<path d="M42.3656 20.7185L32.8583 20.7185C32.086 18.8441 29.8429 15.0906 24.103 15.0717C18.3632 15.0528 14.7379 18.9384 13.726 20.998L6.08246 20.998L10.5412 18.6093C11.9203 15.6728 17.0002 10.6861 24.2473 10.6861C31.3957 10.6861 36.2092 15.6259 37.4586 18.0667L42.3656 20.7185Z" stroke="black"/>
</svg>
