<svg width="48" height="48" viewBox="0 0 48 48" fill="none" xmlns="http://www.w3.org/2000/svg">
<circle cx="23.9082" cy="23.6685" r="23.0911" fill="white" stroke="black"/>
<path d="M26.9436 37.7663L27.4032 39.7983L25.3608 40.2322L23.4333 40.2322L21.0029 39.9781L19.2492 39.5598L19.669 37.4827L20.9394 37.8035L20.9689 37.811L20.9992 37.8148L23.3728 38.1146L23.4063 38.1188L23.4401 38.1185L25.4179 38.1004L25.4715 38.0999L25.5238 38.088L26.9436 37.7663ZM31.8078 22.1992L31.6691 22.1189L31.5096 22.1341L27.7739 22.4907L23.9684 22.7124L20.0962 22.2413L20.0858 22.2401L20.0753 22.2392L16.5207 21.9572L16.4171 21.949L16.3189 21.9827L13.8041 22.8457L10.9858 22.8391L11.0834 12.1035L14.3775 12.0732L16.3994 13.6454L16.5266 13.7444L16.6877 13.7504L24.5821 14.0444L24.5937 14.0449L24.6053 14.0447L32.1981 13.975L32.3953 13.9732L32.5382 13.8372L33.9157 12.5263L37.3447 12.5263L36.8859 23.3535L33.8481 23.3814L31.8078 22.1992ZM21.7028 35.9245L20.8742 35.596L20.8742 24.2156C20.9676 24.2283 21.0611 24.2411 21.155 24.2541C22.6913 24.4658 24.3168 24.6899 26.9037 24.2542L26.1593 35.8344L25.0874 36.1187L23.4716 36.1335L21.7028 35.9245Z" fill="#32365F" stroke="black"/>
</svg>
