<svg width="295" height="219" viewBox="0 0 295 219" fill="none" xmlns="http://www.w3.org/2000/svg">
<path d="M184.805 54.4569L164.635 57.7008L162.692 38.0871L168.6 42.4607L194.094 2.37425L209.118 13.4958L178.897 50.0833L184.805 54.4569Z" fill="white" stroke="black" stroke-width="2" stroke-linejoin="round"/>
<path d="M223.139 125.248L202.812 107.999L224.703 94.06L224.285 102.393L293.05 102.023L291.987 123.212L223.557 116.916L223.139 125.248Z" fill="#CCDC31" stroke="black" stroke-width="2" stroke-linejoin="round"/>
<path d="M120.482 168.939L136.113 153.299L151.687 167.761L143.35 168.076L149.001 216.683L127.801 217.484L128.819 168.624L120.482 168.939Z" fill="#FFDD82" stroke="black" stroke-width="2" stroke-linejoin="round"/>
<path d="M81.8435 36.7815L80.6376 57.1753L61.0692 54.8198L66.6196 50.0004L33.0132 16.4221L47.127 4.16704L76.2931 41.6009L81.8435 36.7815Z" fill="#EF97EC" stroke="black" stroke-width="2" stroke-linejoin="round"/>
<path d="M55.0777 104.266L73.6719 116.151L58.7834 131.528L57.7933 124.244L4.16823 134.925L1.65063 116.403L56.0678 111.55L55.0777 104.266Z" fill="#7CAEB5" stroke="black" stroke-width="2" stroke-linejoin="round"/>
</svg>
