<svg width="48" height="48" viewBox="0 0 48 48" fill="none" xmlns="http://www.w3.org/2000/svg">
<circle cx="24.135" cy="24.2163" r="23.0911" fill="#EC8B11" stroke="black"/>
<path d="M26.1004 21.879L24.0866 41.604L21.9881 21.879L17.8596 21.879C17.8051 20.6655 18.6687 17.7678 23.8282 17.6354C28.9876 17.503 30.411 20.4163 30.3865 21.879L26.1004 21.879Z" fill="#FFDD82"/>
<path d="M42.4415 20.641L32.9343 20.641C32.1619 18.7666 29.9188 15.0132 24.179 14.9942C18.4391 14.9753 14.8139 18.8609 13.802 20.9205L6.15838 20.9205L10.6171 18.5319C11.9962 15.5953 17.0761 10.6087 24.3233 10.6087C31.4716 10.6087 36.2851 15.5485 37.5345 17.9893L42.4415 20.641Z" fill="#FFDD82"/>
<path d="M26.1004 21.879L24.0866 41.604L21.9881 21.879L17.8596 21.879C17.8051 20.6655 18.6687 17.7678 23.8282 17.6354C28.9876 17.503 30.411 20.4163 30.3865 21.879L26.1004 21.879Z" stroke="black"/>
<path d="M42.4415 20.641L32.9343 20.641C32.1619 18.7666 29.9188 15.0132 24.179 14.9942C18.4391 14.9753 14.8139 18.8609 13.802 20.9205L6.15838 20.9205L10.6171 18.5319C11.9962 15.5953 17.0761 10.6087 24.3233 10.6087C31.4716 10.6087 36.2851 15.5485 37.5345 17.9893L42.4415 20.641Z" stroke="black"/>
</svg>
