<svg width="48" height="48" viewBox="0 0 48 48" fill="none" xmlns="http://www.w3.org/2000/svg">
<circle cx="24.2687" cy="24.3919" r="23.0911" fill="#4B6C04" stroke="black"/>
<path d="M26.156 35.2674H22.8532L21.9804 41.0472L27.0996 41.1887L26.156 35.2674Z" fill="#CCDC31"/>
<path d="M24.9293 14.6016C25.9861 14.6016 26.156 33.1914 26.156 33.1914C26.156 33.1914 30.8506 33.4189 31.3224 33.3801C36.1934 32.9797 36.6147 29.4011 36.3945 27.3644C32.8087 26.232 32.8323 26.5151 32.2661 26.5151C32.6907 21.561 33.3041 12.4548 24.9293 7.64221C16.5874 12.5303 16.8768 22.2766 17.0262 26.5151C16.2713 26.4207 13.983 26.0291 12.0957 27.7654C12.3977 30.4831 15.6108 32.4522 17.0262 32.979H22.8532C23.3565 26.924 23.8724 14.6016 24.9293 14.6016Z" fill="#CCDC31"/>
<path d="M26.156 35.2674H22.8532L21.9804 41.0472L27.0996 41.1887L26.156 35.2674Z" stroke="black"/>
<path d="M24.9293 14.6016C25.9861 14.6016 26.156 33.1914 26.156 33.1914C26.156 33.1914 30.8506 33.4189 31.3224 33.3801C36.1934 32.9797 36.6147 29.4011 36.3945 27.3644C32.8087 26.232 32.8323 26.5151 32.2661 26.5151C32.6907 21.561 33.3041 12.4548 24.9293 7.64221C16.5874 12.5303 16.8768 22.2766 17.0262 26.5151C16.2713 26.4207 13.983 26.0291 12.0957 27.7654C12.3977 30.4831 15.6108 32.4522 17.0262 32.979H22.8532C23.3565 26.924 23.8724 14.6016 24.9293 14.6016Z" stroke="black"/>
</svg>
