<svg width="48" height="48" viewBox="0 0 48 48" fill="none" xmlns="http://www.w3.org/2000/svg">
<circle cx="23.5911" cy="24.008" r="23.0911" fill="#7CAEB5" stroke="black"/>
<path d="M20.6894 36.7235H13.7064L15.3814 20.4693H31.6592L33.7116 36.7235H27.0118L26.4692 30.4011H21.1848L20.6894 36.7235Z" fill="#F0E273"/>
<path d="M12.0786 17.4968H35.0563V11.2687H29.9842V13.6986H25.8794V11.2687H20.6894V13.6986H16.7261V11.2687H12.0786V17.4968Z" fill="#F0E273"/>
<path d="M20.6894 36.7235H13.7064L15.3814 20.4693H31.6592L33.7116 36.7235H27.0118L26.4692 30.4011H21.1848L20.6894 36.7235Z" stroke="black"/>
<path d="M12.0786 17.4968H35.0563V11.2687H29.9842V13.6986H25.8794V11.2687H20.6894V13.6986H16.7261V11.2687H12.0786V17.4968Z" stroke="black"/>
</svg>
