<svg width="48" height="48" viewBox="0 0 48 48" fill="none" xmlns="http://www.w3.org/2000/svg">
<circle cx="24.08" cy="23.5911" r="23.0911" fill="#5C378A" stroke="black"/>
<path d="M25.1317 32.0093C24.8632 40.8614 24.4777 41.9127 24.1053 41.2936C23.6871 39.2134 23.4663 35.4077 23.3021 32.1001C23.1885 29.8108 23.9468 23.1005 20.2629 21.5593C17.6649 20.4724 17.5097 19.6193 17.4613 18.774L17.2747 15.0147C17.5466 15.7623 19.7211 17.0966 21.1193 17.6868C23.0193 18.489 24.1588 20.0601 24.1702 20.4237C24.2569 19.3305 26.2359 17.5949 28.0347 16.5453C29.3669 15.7679 30.3543 15.3754 30.4415 14.5761L30.6592 18.9632C30.5423 19.3703 30.007 20.2319 28.0651 21.4867C25.8191 22.9379 25.4673 20.9442 25.1317 32.0093Z" fill="#EF97EC"/>
<path d="M26.3242 15.3842C25.2339 16.0461 24.6019 17.215 24.4222 17.7167C24.1505 17.1213 23.269 15.5668 21.9737 15.265C21.0272 14.5207 20.4861 13.7347 20.4355 13.2852C20.4437 12.7096 20.4974 11.3789 21.7343 10.4415C23.1226 9.75477 23.6753 8.63669 23.9391 7.98341C24.8634 9.47532 26.5138 9.83147 27.2532 10.5436C27.9926 11.2558 28.2294 12.1794 28.1225 12.9036C28.0156 13.6278 27.6871 14.5568 26.3242 15.3842Z" fill="#EF97EC"/>
<path d="M24.1053 41.2936C24.4777 41.9127 24.8632 40.8614 25.1317 32.0093C25.4673 20.9442 25.8191 22.9379 28.0651 21.4867C30.007 20.2319 30.5423 19.3703 30.6592 18.9632L30.4415 14.5761C30.3543 15.3754 29.3669 15.7679 28.0347 16.5453C26.2203 17.604 24.2225 19.3607 24.1684 20.4521C24.2237 20.151 23.0739 18.512 21.1193 17.6868C19.7211 17.0966 17.5466 15.7623 17.2747 15.0147L17.4613 18.774C17.5097 19.6193 17.6649 20.4724 20.2629 21.5593C23.9467 23.1005 23.1885 29.8108 23.3021 32.1001C23.4663 35.4077 23.6871 39.2134 24.1053 41.2936ZM24.4222 17.7167C24.6019 17.215 25.2339 16.0461 26.3242 15.3842C27.6871 14.5568 28.0156 13.6278 28.1225 12.9036C28.2294 12.1794 27.9926 11.2558 27.2532 10.5436C26.5138 9.83147 24.8634 9.47532 23.9391 7.98341C23.6753 8.63669 23.1226 9.75477 21.7343 10.4415C20.4974 11.3789 20.4437 12.7096 20.4355 13.2852C20.4861 13.7347 21.0272 14.5207 21.9737 15.265C23.269 15.5668 24.1505 17.1213 24.4222 17.7167Z" stroke="black"/>
</svg>
