<svg width="49" height="48" viewBox="0 0 49 48" fill="none" xmlns="http://www.w3.org/2000/svg">
<circle cx="24.4456" cy="24.1809" r="23.0911" fill="white" stroke="black"/>
<path d="M27.4809 38.2787L27.9405 40.3108L25.8981 40.7446L23.9706 40.7446L21.5403 40.4905L19.7866 40.0723L20.2064 37.9951L21.4767 38.316L21.5063 38.3234L21.5365 38.3272L23.9102 38.6271L23.9437 38.6313L23.9774 38.631L25.9552 38.6128L26.0088 38.6123L26.0611 38.6005L27.4809 38.2787ZM32.3451 22.7117L32.2065 22.6314L32.047 22.6466L28.3112 23.0032L24.5058 23.2249L20.6335 22.7538L20.6231 22.7525L20.6127 22.7517L17.0581 22.4697L16.9545 22.4614L16.8562 22.4952L14.3415 23.3581L11.5232 23.3516L11.6207 12.6159L14.9148 12.5857L16.9368 14.1579L17.064 14.2568L17.2251 14.2628L25.1194 14.5569L25.131 14.5573L25.1426 14.5572L32.7355 14.4875L32.9327 14.4857L33.0756 14.3497L34.4531 13.0388L37.8821 13.0388L37.4233 23.8659L34.3854 23.8938L32.3451 22.7117ZM22.2402 36.437L21.4115 36.1084L21.4115 24.728C21.5049 24.7407 21.5985 24.7536 21.6923 24.7665C23.2287 24.9783 24.8541 25.2023 27.4411 24.7667L26.6967 36.3469L25.6248 36.6312L24.0089 36.646L22.2402 36.437Z" fill="#32365F" stroke="black"/>
</svg>
