<svg width="201" height="190" viewBox="0 0 201 190" fill="none" xmlns="http://www.w3.org/2000/svg">
<path d="M114.485 14.5238C92.4091 8.55337 74.2141 16.9618 67.2691 21.5269C73.7077 15.8925 69.5472 8.59457 67.2691 6.03541C86.8451 0.0617368 109.15 5.43845 117.855 8.87351L118.243 4.16295L126.931 14.5129L112.23 19.2287L114.485 14.5238Z" fill="#EF97EC" stroke="black" stroke-linejoin="round"/>
<path d="M186.453 82.6653C183.397 62.647 169.003 50.4122 162.189 46.7971C169.78 49.5648 174.577 44.5073 176.027 41.6325C188.973 54.6927 192.657 74.6454 192.88 82.9892L197.309 81.3366L191.244 92.5457L181.313 82.8333L186.453 82.6653Z" fill="white" stroke="black" stroke-linejoin="round"/>
<path d="M139.878 170.423C162.101 159.461 171.74 138.741 173.781 129.751C172.966 139.291 180.334 142.756 184.12 143.296C173.07 162.708 151.12 174.346 141.526 177.74L144.835 182.074L129.942 179.508L138.064 164.732L139.878 170.423Z" fill="#CCDC31" stroke="black" stroke-linejoin="round"/>
<path d="M36.9232 156.973C53.286 171.561 74.0089 170.956 82.325 168.829C73.9258 172.262 73.2921 180.181 74.0252 183.712C53.9745 182.52 37.1198 168.464 31.1988 161.585L28.5429 166.348L26.0371 152.268L41.2079 152.923L36.9232 156.973Z" fill="#FFDD82" stroke="black" stroke-linejoin="round"/>
<path d="M24.494 55.886C13.9327 77.6684 19.2723 99.4471 23.2622 107.614C17.9718 99.7566 10.0592 101.496 6.7642 103.347C3.34152 81.7338 13.2682 59.5921 18.6594 51.2229L13.38 49.8577L26.6159 42.9163L29.4469 59.1946L24.494 55.886Z" fill="#7CAEB5" stroke="black" stroke-linejoin="round"/>
</svg>
